<svg width="16" height="16" viewBox="0 0 16 16" fill="none" xmlns="http://www.w3.org/2000/svg">
<path fill-rule="evenodd" clip-rule="evenodd" d="M13.803 2.19449C14.0634 2.45484 14.0634 2.87695 13.803 3.1373L12.803 4.1373C12.5427 4.39765 12.1206 4.39765 11.8602 4.1373C11.5999 3.87695 11.5999 3.45484 11.8602 3.19449L12.8602 2.19449C13.1206 1.93414 13.5427 1.93414 13.803 2.19449Z" fill="#1C1C1C"/>
<path fill-rule="evenodd" clip-rule="evenodd" d="M15.999 5.33319C15.999 5.70138 15.7005 5.99986 15.3323 5.99986L13.3323 5.99986C12.9641 5.99986 12.6657 5.70138 12.6657 5.33319C12.6657 4.965 12.9641 4.66652 13.3323 4.66652L15.3323 4.66652C15.7005 4.66652 15.999 4.965 15.999 5.33319Z" fill="#1C1C1C"/>
<path fill-rule="evenodd" clip-rule="evenodd" d="M10.6653 -0.000529944C11.0335 -0.000529981 11.332 0.297947 11.332 0.666137L11.332 2.66614C11.332 3.03433 11.0335 3.3328 10.6653 3.3328C10.2971 3.3328 9.99863 3.03433 9.99863 2.66614L9.99863 0.666137C9.99863 0.297947 10.2971 -0.000529981 10.6653 -0.000529944Z" fill="#1C1C1C"/>
<path fill-rule="evenodd" clip-rule="evenodd" d="M12.4777 6.77685C12.813 8.70083 12.0203 10.7028 10.5256 11.9761L10.5201 11.9807L9.93086 12.4717C9.93041 12.4721 9.92995 12.4724 9.9295 12.4728C8.6716 13.5319 7.2439 14.3787 5.71391 14.9725C5.37067 15.1058 4.98441 14.9355 4.85118 14.5923C4.71796 14.249 4.88821 13.8628 5.23145 13.7295C6.62468 13.1888 7.92575 12.4171 9.07202 11.4518L9.07464 11.4496L9.66358 10.9588C10.8274 9.9658 11.4143 8.42318 11.1628 6.99793C11.1616 6.99076 11.1604 6.98357 11.1594 6.97636C11.004 5.8888 10.1495 5.03429 9.06194 4.87892C9.05473 4.87789 9.04754 4.87674 9.04036 4.87548C7.61511 4.62396 6.0725 5.21086 5.07949 6.37471L4.58651 6.96629C3.08272 8.75202 2.04957 10.9124 1.62637 13.2105C1.50383 13.9655 2.16578 14.5553 2.80065 14.4173C3.16043 14.339 3.5155 14.5673 3.59372 14.9271C3.67193 15.2869 3.44367 15.6419 3.08389 15.7202C1.45154 16.075 0.0436621 14.5964 0.311987 12.9864L0.313884 12.9756C0.778979 10.4434 1.91488 8.06933 3.5655 6.10876C3.56587 6.10832 3.56624 6.10788 3.56662 6.10743L4.06221 5.51271C5.33552 4.01796 7.33747 3.22525 9.26145 3.56057C10.9268 3.80337 12.2349 5.11151 12.4777 6.77685Z" fill="#1C1C1C"/>
<path fill-rule="evenodd" clip-rule="evenodd" d="M5.52613 4.86249C5.78648 4.60214 6.20859 4.60214 6.46894 4.86249L8.46894 6.86249C8.72929 7.12284 8.72929 7.54495 8.46894 7.8053C8.20859 8.06565 7.78648 8.06565 7.52613 7.8053L5.52613 5.8053C5.26578 5.54495 5.26578 5.12284 5.52613 4.86249Z" fill="#1C1C1C"/>
<path fill-rule="evenodd" clip-rule="evenodd" d="M6.85929 9.52856C7.11964 9.26821 7.54175 9.26821 7.8021 9.52856L8.46877 10.1952C8.72912 10.4556 8.72912 10.8777 8.46877 11.138C8.20842 11.3984 7.78631 11.3984 7.52596 11.138L6.85929 10.4714C6.59894 10.211 6.59894 9.78891 6.85929 9.52856Z" fill="#1C1C1C"/>
<path fill-rule="evenodd" clip-rule="evenodd" d="M2.19492 8.1954C2.45527 7.93505 2.87738 7.93505 3.13773 8.1954L5.13773 10.1954C5.39808 10.4558 5.39808 10.8779 5.13773 11.1382C4.87738 11.3986 4.45527 11.3986 4.19492 11.1382L2.19492 9.13821C1.93457 8.87786 1.93457 8.45575 2.19492 8.1954Z" fill="#1C1C1C"/>
</svg>
